<?xml version="1.0" encoding="UTF-8" standalone="no"?>
<!-- Created with Inkscape (http://www.inkscape.org/) -->

<svg
   xmlns:dc="http://purl.org/dc/elements/1.1/"
   xmlns:cc="http://creativecommons.org/ns#"
   xmlns:rdf="http://www.w3.org/1999/02/22-rdf-syntax-ns#"
   xmlns:svg="http://www.w3.org/2000/svg"
   xmlns="http://www.w3.org/2000/svg"
   version="1.1"
   width="373.96591"
   height="385.74356"
   id="svg2985"
   xml:space="preserve"><metadata
     id="metadata2991"><rdf:RDF><cc:Work
         rdf:about=""><dc:format>image/svg+xml</dc:format><dc:type
           rdf:resource="http://purl.org/dc/dcmitype/StillImage" /><dc:title></dc:title></cc:Work></rdf:RDF></metadata><defs
     id="defs2989"><marker
   refX="0"
   refY="0"
   orient="auto"
   id="DotM"
   style="overflow:visible"><path
     d="m -2.5,-1 c 0,2.76 -2.24,5 -5,5 -2.76,0 -5,-2.24 -5,-5 0,-2.76 2.24,-5 5,-5 2.76,0 5,2.24 5,5 z"
     transform="matrix(0.4,0,0,0.4,2.96,0.4)"
     id="path6981"
     style="fill-rule:evenodd;stroke:#000000;stroke-width:1pt;marker-start:none;marker-end:none" /></marker><marker
   refX="0"
   refY="0"
   orient="auto"
   id="DotL"
   style="overflow:visible"><path
     d="m -2.5,-1 c 0,2.76 -2.24,5 -5,5 -2.76,0 -5,-2.24 -5,-5 0,-2.76 2.24,-5 5,-5 2.76,0 5,2.24 5,5 z"
     transform="matrix(0.8,0,0,0.8,5.92,0.8)"
     id="path6978"
     style="fill-rule:evenodd;stroke:#000000;stroke-width:1pt;marker-start:none;marker-end:none" /></marker><marker
   refX="0"
   refY="0"
   orient="auto"
   id="Arrow1Lend"
   style="overflow:visible"><path
     d="M 0,0 5,-5 -12.5,0 5,5 0,0 z"
     transform="matrix(-0.8,0,0,-0.8,-10,0)"
     id="path6919"
     style="fill-rule:evenodd;stroke:#000000;stroke-width:1pt;marker-start:none" /></marker><clipPath
   id="clipPath3001"><path
     d="m 59.04,73.44 270.72,0 0,227.52 -270.72,0 0,-227.52 z"
     id="path3003" /></clipPath><clipPath
   id="clipPath3011"><path
     d="M 0,0 360,0 360,360 0,360 0,0 z"
     id="path3013" /></clipPath><clipPath
   id="clipPath3079"><path
     d="m 59.04,73.44 270.72,0 0,227.52 -270.72,0 0,-227.52 z"
     id="path3081" /></clipPath>







































































</defs><g
     transform="matrix(1.25,0,0,-1.25,-55.038654,433.54654)"
     id="g2993"><g
       id="g2997"
       style="fill:#dadada;fill-opacity:1;stroke:#000000;stroke-opacity:1"><g
         clip-path="url(#clipPath3001)"
         id="g2999"
         style="fill:#dadada;fill-opacity:1;stroke:#000000;stroke-opacity:1"><path
           d="m 69.07,187.2 2.5,-2.6 2.51,-2.54 2.51,-2.47 2.5,-2.41 2.51,-2.36 2.51,-2.29 2.5,-2.24 2.51,-2.18 2.51,-2.13 2.5,-2.08 2.51,-2.03 2.51,-1.97 2.5,-1.93 2.51,-1.88 2.51,-1.83 2.5,-1.79 2.51,-1.74 2.51,-1.7 2.5,-1.66 2.51,-1.62 2.51,-1.57 2.5,-1.54 2.51,-1.5 2.51,-1.47 2.5,-1.42 2.51,-1.39 2.51,-1.36 2.5,-1.33 2.51,-1.29 2.51,-1.26 2.5,-1.23 2.51,-1.19 2.51,-1.17 2.5,-1.14 2.51,-1.11 2.51,-1.09 2.5,-1.06 2.51,-1.03 2.51,-1 2.5,-0.98 2.51,-0.96 2.51,-0.93 2.5,-0.91 2.51,-0.89 2.51,-0.87 2.5,-0.84 2.51,-0.82 2.51,-0.81 2.5,-0.78 2.51,-0.76 2.51,-0.75 2.5,-0.73 2.51,-0.71 2.51,-0.69 2.5,-0.67 2.51,-0.66 2.51,-0.64 2.5,-0.63 2.51,-0.61 2.51,-0.59 2.5,-0.58 2.51,-0.57 2.51,-0.55 2.5,-0.54 2.51,-0.52 2.51,-0.51 2.5,-0.5 2.51,-0.49 2.51,-0.48 2.5,-0.46 2.51,-0.45 2.51,-0.44 2.5,-0.43 2.51,-0.42 2.51,-0.41 2.5,-0.4 2.51,-0.39 2.51,-0.38 2.5,-0.37 2.51,-0.36 2.51,-0.35 2.5,-0.34 2.51,-0.34 2.51,-0.32 2.5,-0.32 2.51,-0.31 2.51,-0.31 2.5,-0.29 2.51,-0.29 2.51,-0.28 2.5,-0.28 2.51,-0.26 2.51,-0.26 2.5,-0.26 2.51,-0.25 2.51,-0.24 2.5,-0.23 2.51,-0.23 2.51,-0.23 2.5,-0.22"
           id="path3005"
           style="fill:none;stroke:#000000;stroke-width:1.20000005;stroke-linecap:round;stroke-linejoin:round;stroke-miterlimit:10;stroke-opacity:1;stroke-dasharray:none" /><path
           d="m 69.07,187.2 2.5,-2.6 2.51,-2.54 2.51,-2.47 2.5,-2.41 2.51,-2.36 2.51,-2.29 2.5,-2.24 2.51,-2.18 2.51,-2.13 2.5,-2.08 2.51,-2.03 2.51,-1.97 2.5,-1.93 2.51,-1.88 2.51,-1.83 2.5,-1.79 2.51,-1.74 2.51,-1.7 2.5,-1.66 2.51,-1.62 2.51,-1.57 2.5,-1.54 2.51,-1.5 2.51,-1.47 2.5,-1.42 2.51,-1.39 2.51,-1.36 2.5,-1.33 2.51,-1.29 2.51,-1.26 2.5,-1.23 2.51,-1.19 2.51,-1.17 2.5,-1.14 2.51,-1.11 2.51,-1.09 2.5,-1.06 2.51,-1.03 2.51,-1 2.5,-0.98 2.51,-0.96 2.51,-0.93 2.5,-0.91 2.51,-0.89 2.51,-0.87 2.5,-0.84 2.51,-0.82 2.51,-0.81 2.5,-0.78 2.51,-0.76 2.51,-0.75 2.5,-0.73 2.51,-0.71 2.51,-0.69 2.5,-0.67 2.51,-0.66 2.51,-0.64 2.5,-0.63 2.51,-0.61 2.51,-0.59 2.5,-0.58 2.51,-0.57 2.51,-0.55 2.5,-0.54 2.51,-0.52 2.51,-0.51 2.5,-0.5 2.51,-0.49 2.51,-0.48 2.5,-0.46 2.51,-0.45 2.51,-0.44 2.5,-0.43 2.51,-0.42 2.51,-0.41 2.5,-0.4 2.51,-0.39 2.51,-0.38 2.5,-0.37 2.51,-0.36 2.51,-0.35 2.5,-0.34 2.51,-0.34 2.51,-0.32 2.5,-0.32 2.51,-0.31 2.51,-0.31 2.5,-0.29 2.51,-0.29 2.51,-0.28 2.5,-0.28 2.51,-0.26 2.51,-0.26 2.5,-0.26 2.51,-0.25 2.51,-0.24 2.5,-0.23 2.51,-0.23 2.51,-0.23 1.96218,-8.287309 -249.566565,-0.05886 z"
           id="path3859"
           style="fill:#dadada;fill-opacity:1;stroke:none" /><path
           d="m 69.07,187.2 2.5,-2.6 2.51,-2.54 2.51,-2.47 2.5,-2.41 2.51,-2.36 2.51,-2.29 2.5,-2.24 2.51,-2.18 2.51,-2.13 2.5,-2.08 2.51,-2.03 2.51,-1.97 2.5,-1.93 2.51,-1.88 2.51,-1.83 2.5,-1.79 2.51,-1.74 2.51,-1.7 2.5,-1.66 2.51,-1.62 2.51,-1.57 2.5,-1.54 2.51,-1.5 2.51,-1.47 2.5,-1.42 2.51,-1.39 2.51,-1.36 2.5,-1.33 -0.348,-52.471193 -70.352016,0.619779 z"
           id="path3861"
           style="fill:#bbbbbb;fill-opacity:1;stroke:none" /></g></g><g
       id="g2995" /><path
       d="m 69.07,82.04513 270.13514,0"
       id="path3015"
       style="fill:none;stroke:#000000;stroke-width:0.77859086;stroke-linecap:round;stroke-linejoin:round;stroke-miterlimit:10;stroke-opacity:1;stroke-dasharray:none;marker-end:url(#Arrow1Lend)" /><path
       d="m 69.07,82.04513 0,-7.2"
       id="path3017"
       style="fill:none;stroke:#000000;stroke-width:0.75;stroke-linecap:round;stroke-linejoin:round;stroke-miterlimit:10;stroke-opacity:1;stroke-dasharray:none" /><path
       d="m 68.720771,81.87 0,210.66"
       id="path3053"
       style="fill:none;stroke:#000000;stroke-width:0.75040001;stroke-linecap:round;stroke-linejoin:round;stroke-miterlimit:10;stroke-opacity:1;stroke-dasharray:none;marker-start:none;marker-end:url(#Arrow1Lend)" /><path
       d="m 67.64513,81.87 -7.2,0"
       id="path3055"
       style="fill:none;stroke:#000000;stroke-width:0.75;stroke-linecap:round;stroke-linejoin:round;stroke-miterlimit:10;stroke-opacity:1;stroke-dasharray:none" /><g
       id="g3075"><g
         clip-path="url(#clipPath3079)"
         id="g3077"><path
           d="m 69.07,81.87 2.5,5.2 2.51,5.07 2.51,4.95 2.5,4.82 2.51,4.71 2.51,4.59 2.5,4.48 2.51,4.36 2.51,4.26 2.5,4.16 2.51,4.05 2.51,3.95 2.5,3.85 2.51,3.76 2.51,3.66 2.5,3.58 2.51,3.49 2.51,3.4 2.5,3.31 2.51,3.24 2.51,3.15 2.5,3.08 2.51,3 2.51,2.93 2.5,2.85 2.51,2.79 2.51,2.71 2.5,2.65 2.51,2.58 2.51,2.52 2.5,2.46 2.51,2.39 2.51,2.34 2.5,2.28 2.51,2.22 2.51,2.17 2.5,2.12 2.51,2.06 2.51,2.01 2.5,1.96 2.51,1.92 2.51,1.86 2.5,1.82 2.51,1.78 2.51,1.73 2.5,1.69 2.51,1.65 2.51,1.6 2.5,1.57 2.51,1.53 2.51,1.49 2.5,1.45 2.51,1.42 2.51,1.38 2.5,1.35 2.51,1.31 2.51,1.29 2.5,1.25 2.51,1.22 2.51,1.19 2.5,1.16 2.51,1.13 2.51,1.1 2.5,1.08 2.51,1.05 2.51,1.02 2.5,1 2.51,0.98 2.51,0.95 2.5,0.92 2.51,0.91 2.51,0.88 2.5,0.86 2.51,0.84 2.51,0.82 2.5,0.79 2.51,0.78 2.51,0.76 2.5,0.74 2.51,0.72 2.51,0.71 2.5,0.68 2.51,0.67 2.51,0.66 2.5,0.63 2.51,0.62 2.51,0.61 2.5,0.59 2.51,0.58 2.51,0.56 2.5,0.55 2.51,0.53 2.51,0.52 2.5,0.51 2.51,0.5 2.51,0.48 2.5,0.47 2.51,0.46 2.51,0.45 2.5,0.44"
           id="path3083"
           style="fill:none;stroke:none" /><path
           d="m 138.57,81.835058 0,52.694942"
           id="path3085"
           style="fill:none;stroke:none;stroke-width:0.95999998;marker-start:url(#DotM)" /></g></g><g
       transform="matrix(1.0552666,0,0,-1.0552666,14.777362,355.49133)"
       id="g5377"><g
         transform="matrix(0.64107143,0,0,-0.64107143,-112.1875,336.5625)"
         id="content"
         xml:space="preserve"
         style="font-style:normal;font-variant:normal;font-weight:normal;font-stretch:normal;letter-spacing:normal;word-spacing:normal;text-anchor:start;fill:none;stroke:#000000;stroke-linecap:butt;stroke-linejoin:miter;stroke-miterlimit:10.43299961;stroke-opacity:1;stroke-dasharray:none;stroke-dashoffset:0"><path
           d="m 461.05,417.71 0.05,1.05 c 0.29,7.42 4.48,8.66 6.19,8.66 5.12,0 5.62,-6.72 5.62,-8.66 H 461.1 l -0.05,-1.05 h 13.91 c 1.09,0 1.23,0 1.23,1.05 0,4.92 -2.69,9.75 -8.9,9.75 -5.79,0 -10.38,-5.12 -10.38,-11.36 0,-6.67 5.23,-11.5 10.97,-11.5 6.08,0 8.31,5.53 8.31,6.47 0,0.5 -0.39,0.61 -0.64,0.61 -0.45,0 -0.55,-0.3 -0.66,-0.7 -1.73,-5.13 -6.21,-5.13 -6.71,-5.13 -2.5,0 -4.49,1.49 -5.63,3.33 -1.5,2.39 -1.5,5.69 -1.5,7.48 z"
           id="path5380"
           style="fill:#000000;stroke-width:0" /><path
           d="m 491.89,417.9 0.29,0.36 0.29,0.37 0.3,0.38 0.31,0.39 0.61,0.78 0.31,0.38 0.3,0.39 0.3,0.37 0.3,0.37 0.29,0.35 0.28,0.34 0.13,0.16 0.14,0.16 0.13,0.16 0.13,0.15 0.12,0.14 0.12,0.14 0.12,0.13 0.11,0.12 c 1.55,1.78 3.6,2.53 5.94,2.58 v 1.55 c -1.3,-0.1 -2.8,-0.14 -4.09,-0.14 -1.49,0 -4.13,0.09 -4.78,0.14 v -1.55 c 1.04,-0.09 1.45,-0.73 1.45,-1.53 0,-0.8 -0.5,-1.45 -0.75,-1.75 l -3.1,-3.89 -3.87,5.03 c -0.45,0.5 -0.45,0.61 -0.45,0.91 0,0.75 0.75,1.18 1.73,1.23 v 1.55 c -1.28,-0.05 -4.58,-0.14 -5.37,-0.14 -1.05,0 -3.39,0.04 -4.74,0.14 v -1.55 c 3.49,0 3.55,-0.05 5.88,-3.03 l 4.93,-6.42 -4.68,-5.94 c -2.39,-2.89 -5.33,-2.98 -6.38,-2.98 v -1.55 c 1.3,0.09 2.85,0.16 4.14,0.16 1.44,0 3.53,-0.11 4.74,-0.16 v 1.55 c -1.1,0.14 -1.46,0.79 -1.46,1.54 0,1.1 1.46,2.74 4.49,6.33 l 3.79,-4.98 c 0.4,-0.55 1.05,-1.35 1.05,-1.64 0,-0.46 -0.45,-1.21 -1.8,-1.25 v -1.55 c 1.49,0.05 4.29,0.16 5.38,0.16 1.34,0 3.3,-0.07 4.78,-0.16 v 1.55 c -2.69,0 -3.58,0.09 -4.73,1.54 z"
           id="path5382"
           style="fill:#000000;stroke-width:0" /><path
           d="m 512.44,424.93 v 3.28 l -7.17,-0.54 v -1.55 c 3.54,0 3.89,-0.3 3.89,-2.48 v -23.32 c 0,-2.25 -0.55,-2.25 -3.89,-2.25 v -1.54 c 1.7,0.06 4.28,0.15 5.57,0.15 1.35,0 3.89,-0.09 5.64,-0.15 v 1.54 c -3.34,0 -3.89,0 -3.89,2.25 v 8.36 0.46 l 0.71,0.65 c -0.71,1.05 -0.71,1.1 -0.71,2.08 h 0 V 423 c 1.44,2.53 3.89,3.98 6.43,3.98 3.64,0 6.68,-4.39 6.68,-10.02 0,-6.03 -3.5,-10.21 -7.18,-10.21 -1.99,0 -3.88,1 -5.22,3.04 l -0.71,-0.65 c 0.25,-0.8 2.35,-3.49 6.13,-3.49 5.94,0 11.11,4.88 11.11,11.31 0,6.33 -4.83,11.25 -10.41,11.25 -3.89,0 -5.98,-2.18 -6.98,-3.28 z"
           id="path5384"
           style="fill:#000000;stroke-width:0" /><path
           d="m 548.2,394.25 0,0.02 0,0.03 0,0.01 -0.01,0.02 0,0.01 0,0.02 -0.01,0.01 -0.01,0.02 -0.01,0.02 -0.01,0.02 -0.01,0.02 -0.01,0.03 -0.02,0.02 -0.02,0.03 -0.02,0.03 -0.02,0.03 -0.03,0.03 -0.03,0.04 -0.01,0.02 -0.02,0.02 -0.02,0.02 -0.02,0.02 -0.01,0.02 -0.02,0.03 -0.03,0.02 -0.02,0.02 -0.02,0.03 -0.02,0.02 -0.03,0.03 -0.02,0.03 -0.03,0.03 -0.03,0.03 -0.03,0.03 -0.03,0.03 -0.03,0.03 -0.03,0.03 -0.03,0.04 -0.04,0.03 -0.03,0.04 -0.04,0.03 -0.04,0.04 -0.04,0.04 c -6.21,6.28 -7.81,15.69 -7.81,23.31 0,8.67 1.89,17.35 8.02,23.56 0.64,0.61 0.64,0.71 0.64,0.86 0,0.35 -0.19,0.49 -0.48,0.49 -0.5,0 -4.99,-3.38 -7.93,-9.7 -2.54,-5.49 -3.14,-11.02 -3.14,-15.21 0,-3.89 0.55,-9.9 3.28,-15.54 2.99,-6.13 7.29,-9.36 7.79,-9.36 0.29,0 0.48,0.14 0.48,0.5 z"
           id="path5386"
           style="fill:#000000;stroke-width:0" /><path
           d="m 568.81,420.75 0.2,-0.5 0.19,-0.51 0.39,-1.05 0.4,-1.08 0.39,-1.1 0.39,-1.1 0.39,-1.09 0.37,-1.07 0.19,-0.53 0.18,-0.51 0.18,-0.5 0.17,-0.49 0.17,-0.47 0.16,-0.45 0.16,-0.44 0.15,-0.42 0.15,-0.39 0.14,-0.37 0.14,-0.35 0.12,-0.32 0.12,-0.29 0.12,-0.26 0.1,-0.23 0.1,-0.2 0.09,-0.16 0.08,-0.12 c 0.79,-1.1 1.29,-1.1 2.64,-1.1 h 1.09 c 0.5,0.05 0.55,0.35 0.55,0.5 0,0.14 -0.1,0.25 -0.25,0.46 -0.49,0.54 -0.8,1.28 -1.14,2.28 l -10.16,28.34 c -1.05,2.89 -3.75,3.55 -6.08,3.55 -0.25,0 -0.9,0 -0.9,-0.55 0,-0.41 0.4,-0.5 0.45,-0.5 1.64,-0.3 1.98,-0.59 3.23,-3.98 l 4.83,-13.55 -13.75,-13.66 c -0.59,-0.59 -0.89,-0.9 -0.89,-1.54 0,-0.85 0.71,-1.44 1.5,-1.44 0.8,0 1.24,0.55 1.64,1.05 z"
           id="path5388"
           style="fill:#000000;stroke-width:0" /><path
           d="m 594.46,418.65 0,0.37 -0.01,0.39 0,0.39 -0.02,0.41 -0.04,0.84 -0.06,0.88 -0.08,0.92 -0.11,0.95 -0.13,0.97 -0.16,1.01 -0.2,1.02 -0.23,1.03 -0.27,1.05 -0.3,1.06 -0.35,1.07 -0.39,1.07 -0.22,0.53 -0.22,0.53 -0.24,0.53 -0.25,0.53 c -2.98,6.12 -7.27,9.36 -7.77,9.36 -0.29,0 -0.5,-0.19 -0.5,-0.49 0,-0.15 0,-0.25 0.94,-1.15 4.89,-4.92 7.74,-12.85 7.74,-23.27 0,-8.51 -1.85,-17.28 -8.04,-23.56 -0.64,-0.59 -0.64,-0.7 -0.64,-0.84 0,-0.3 0.21,-0.5 0.5,-0.5 0.5,0 4.97,3.39 7.93,9.71 2.53,5.47 3.12,11 3.12,15.19 z"
           id="path5390"
           style="fill:#000000;stroke-width:0" /></g></g><g
       transform="matrix(0.91460791,0,0,-0.91460791,-6.2126468,164.00573)"
       id="g5526"
       style="fill:#000000"><g
         transform="matrix(0.64107143,0,0,-0.64107143,-112.1875,336.5625)"
         id="g5528"
         xml:space="preserve"
         style="font-style:normal;font-variant:normal;font-weight:normal;font-stretch:normal;letter-spacing:normal;word-spacing:normal;text-anchor:start;fill:#000000;stroke:#000000;stroke-linecap:butt;stroke-linejoin:miter;stroke-miterlimit:10.43299961;stroke-opacity:1;stroke-dasharray:none;stroke-dashoffset:0"><path
           d="m 475.11,447.92 0,0.04 0,0.04 0,0.05 0,0.04 0,0.03 0,0.04 0,0.04 0,0.03 0,0.04 0,0.03 -0.01,0.03 0,0.03 0,0.03 0,0.03 -0.01,0.03 0,0.02 -0.01,0.03 0,0.02 -0.01,0.03 0,0.02 -0.01,0.04 -0.02,0.04 -0.02,0.03 -0.01,0.03 -0.03,0.03 -0.02,0.03 -0.03,0.02 -0.03,0.02 -0.03,0.02 -0.04,0.01 -0.04,0.01 -0.04,0.02 -0.03,0 -0.02,0 -0.03,0.01 -0.02,0 -0.03,0.01 -0.03,0 -0.03,0 -0.03,0 -0.03,0 -0.04,0.01 -0.03,0 -0.04,0 -0.03,0 -0.04,0 -0.04,0 -0.04,0 -0.04,0 -0.04,0 -0.05,0 -0.04,0 c -2.24,-2.2 -5.39,-2.23 -6.83,-2.23 v -1.25 c 0.84,0 3.14,0 5.05,0.97 v -17.77 c 0,-1.16 0,-1.61 -3.49,-1.61 h -1.31 v -1.25 c 0.62,0.03 4.9,0.14 6.2,0.14 1.08,0 5.47,-0.11 6.24,-0.14 v 1.25 h -1.33 c -3.49,0 -3.49,0.45 -3.49,1.61 z"
           id="path5530"
           style="fill:#000000;stroke-width:0" /><polyline
           id="polyline5532"
           points="462,418 485.64,418 485.64,420.04 462,420.04 "
           style="fill:#000000;fill-rule:nonzero;stroke-width:0" /><path
           d="m 475.6,399.01 0.33,-0.76 0.33,-0.77 0.33,-0.78 0.33,-0.78 0.32,-0.78 0.32,-0.76 0.16,-0.37 0.15,-0.36 0.15,-0.36 0.14,-0.34 0.14,-0.34 0.14,-0.32 0.13,-0.31 0.13,-0.3 0.12,-0.29 0.12,-0.27 0.11,-0.25 0.1,-0.23 0.1,-0.22 0.09,-0.19 0.08,-0.18 0.07,-0.15 0.07,-0.13 0.06,-0.11 0.05,-0.08 0.04,-0.06 c 0.65,-0.82 1.29,-0.82 1.84,-0.82 h 0.7 c 0.66,0 1.02,0 1.02,0.4 0,0.19 -0.11,0.28 -0.19,0.36 -0.4,0.38 -0.76,1.19 -0.9,1.5 l -8.5,20.06 c -0.24,0.63 -0.94,2.21 -4.63,2.21 -0.42,0 -0.91,0 -0.91,-0.5 0,-0.41 0.35,-0.46 0.52,-0.49 0.73,-0.09 1.39,-0.2 2.27,-2.19 l 4.14,-9.76 -10.27,-9.27 c -0.42,-0.34 -0.7,-0.62 -0.7,-1.22 0,-0.82 0.7,-1.18 1.19,-1.18 0.65,0 1.07,0.45 1.18,0.56 z"
           id="path5534"
           style="fill:#000000;stroke-width:0" /></g></g><g
       transform="matrix(0.91460791,0,0,-0.91460791,-49.147478,164.41676)"
       id="g5680"
       style="fill:#4d4d4d"><g
         transform="matrix(0.64107143,0,0,-0.64107143,-112.1875,336.5625)"
         id="g5682"
         xml:space="preserve"
         style="font-style:normal;font-variant:normal;font-weight:normal;font-stretch:normal;letter-spacing:normal;word-spacing:normal;text-anchor:start;fill:#4d4d4d;stroke:#000000;stroke-linecap:butt;stroke-linejoin:miter;stroke-miterlimit:10.43299961;stroke-opacity:1;stroke-dasharray:none;stroke-dashoffset:0"><path
           d="m 468.69,449.95 -5.22,-0.39 v -1.25 c 2.33,0 2.61,-0.25 2.61,-1.95 v -17.85 c 0,-1.5 -0.34,-1.5 -2.61,-1.5 v -1.25 c 0.07,0 2.5,0.14 3.91,0.14 1.31,0 2.61,-0.03 3.94,-0.14 v 1.25 c -2.27,0 -2.63,0 -2.63,1.5 z"
           id="path5684"
           style="fill:#4d4d4d;stroke-width:0" /><path
           d="m 490.73,436.32 0,0.28 -0.01,0.28 -0.03,0.26 -0.03,0.26 -0.04,0.25 -0.05,0.24 -0.06,0.24 -0.07,0.22 -0.08,0.22 -0.08,0.21 -0.1,0.2 -0.11,0.19 -0.12,0.19 -0.13,0.17 -0.14,0.17 -0.15,0.16 -0.17,0.15 -0.17,0.14 -0.19,0.13 -0.19,0.12 -0.21,0.12 -0.22,0.1 -0.23,0.09 -0.24,0.09 -0.26,0.07 -0.27,0.07 -0.28,0.05 -0.29,0.05 -0.3,0.03 -0.32,0.03 -0.33,0.02 -0.34,0 c -2.86,0 -4.71,-1.56 -5.69,-3.37 h -0.03 v 3.37 l -5.13,-0.37 v -1.25 c 2.35,0 2.63,-0.25 2.63,-1.96 v -9.03 c 0,-1.5 -0.36,-1.5 -2.63,-1.5 v -1.25 c 0.08,0 2.52,0.14 3.99,0.14 1.28,0 3.68,-0.11 4,-0.14 v 1.25 c -2.27,0 -2.61,0 -2.61,1.5 v 6.28 c 0,3.66 2.89,5.36 5.18,5.36 2.44,0 2.75,-1.92 2.75,-3.69 v -7.95 c 0,-1.5 -0.34,-1.5 -2.6,-1.5 v -1.25 c 0.07,0 2.51,0.14 3.96,0.14 1.3,0 3.71,-0.11 4.02,-0.14 v 1.25 c -2.27,0 -2.63,0 -2.63,1.5 z"
           id="path5686"
           style="fill:#4d4d4d;stroke-width:0" /><path
           d="M 519.19,432.11 H 518 c -0.09,-0.77 -0.45,-2.83 -0.91,-3.18 -0.26,-0.2 -2.95,-0.2 -3.43,-0.2 h -6.43 c 3.66,3.23 4.88,4.2 6.97,5.84 2.58,2.07 4.99,4.22 4.99,7.54 0,4.21 -3.69,6.79 -8.16,6.79 -4.31,0 -7.25,-3.03 -7.25,-6.23 0,-1.78 1.5,-1.96 1.86,-1.96 0.83,0 1.84,0.6 1.84,1.85 0,0.62 -0.25,1.84 -2.06,1.84 1.08,2.47 3.46,3.24 5.1,3.24 3.48,0 5.29,-2.71 5.29,-5.53 0,-3.04 -2.15,-5.44 -3.28,-6.69 l -8.39,-8.3 c -0.36,-0.31 -0.36,-0.39 -0.36,-1.36 h 14.36 z"
           id="path5688"
           style="fill:#4d4d4d;stroke-width:0" /><polyline
           style="fill:#4d4d4d;fill-rule:nonzero;stroke-width:0"
           points="462,418 522,418 522,420.04 462,420.04 "
           id="polyline5690" /><path
           d="m 493.72,399.01 0.33,-0.76 0.33,-0.77 0.33,-0.78 0.33,-0.78 0.32,-0.78 0.32,-0.76 0.16,-0.37 0.15,-0.36 0.15,-0.36 0.14,-0.34 0.14,-0.34 0.14,-0.32 0.13,-0.31 0.13,-0.3 0.12,-0.29 0.12,-0.27 0.11,-0.25 0.1,-0.23 0.1,-0.22 0.09,-0.19 0.08,-0.18 0.07,-0.15 0.07,-0.13 0.06,-0.11 0.05,-0.08 0.04,-0.06 c 0.65,-0.82 1.3,-0.82 1.84,-0.82 h 0.71 c 0.65,0 1.01,0 1.01,0.4 0,0.19 -0.11,0.28 -0.19,0.36 -0.4,0.38 -0.76,1.19 -0.9,1.5 l -8.5,20.06 c -0.24,0.63 -0.94,2.21 -4.63,2.21 -0.42,0 -0.9,0 -0.9,-0.5 0,-0.41 0.34,-0.46 0.51,-0.49 0.74,-0.09 1.39,-0.2 2.27,-2.19 l 4.14,-9.76 -10.27,-9.27 c -0.42,-0.34 -0.7,-0.62 -0.7,-1.22 0,-0.82 0.7,-1.18 1.19,-1.18 0.65,0 1.07,0.45 1.18,0.56 z"
           id="path5692"
           style="fill:#4d4d4d;stroke-width:0" /></g></g><g
       transform="matrix(0.58948833,0,0,-0.58948833,365.44214,280.41091)"
       id="g5852"><g
         transform="matrix(0.64107143,0,0,-0.64107143,-112.1875,336.5625)"
         id="g5854"
         xml:space="preserve"
         style="font-style:normal;font-variant:normal;font-weight:normal;font-stretch:normal;letter-spacing:normal;word-spacing:normal;text-anchor:start;fill:none;stroke:#000000;stroke-linecap:butt;stroke-linejoin:miter;stroke-miterlimit:10.43299961;stroke-opacity:1;stroke-dasharray:none;stroke-dashoffset:0"><path
           d="m 470.61,422.39 h 4.83 c 3.75,0 4.14,-0.8 4.14,-2.24 0,-0.36 0,-0.95 -0.34,-2.44 -0.11,-0.25 -0.16,-0.45 -0.16,-0.56 0,-0.39 0.3,-0.59 0.6,-0.59 0.5,0 0.5,0.15 0.75,1.05 l 2.75,10.81 c 0.14,0.54 0.14,0.65 0.14,0.79 0,0.1 -0.1,0.55 -0.6,0.55 -0.5,0 -0.54,-0.25 -0.75,-1.05 -1.04,-3.87 -2.18,-4.78 -6.42,-4.78 h -4.53 l 3.19,12.66 c 0.43,1.75 0.5,1.94 2.68,1.94 h 6.58 c 6.13,0 7.27,-1.64 7.27,-5.47 0,-1.16 0,-1.35 -0.14,-2.7 -0.11,-0.65 -0.11,-0.74 -0.11,-0.9 0,-0.25 0.15,-0.59 0.61,-0.59 0.54,0 0.59,0.3 0.69,1.25 l 1,8.61 c 0.15,1.34 -0.1,1.34 -1.35,1.34 h -24.4 c -1,0 -1.5,0 -1.5,-1 0,-0.54 0.45,-0.54 1.39,-0.54 1.84,0 3.23,0 3.23,-0.89 0,-0.21 0,-0.3 -0.25,-1.21 l -6.56,-26.34 c -0.5,-1.95 -0.61,-2.34 -4.55,-2.34 -0.84,0 -1.39,0 -1.39,-0.96 0,-0.59 0.59,-0.59 0.75,-0.59 1.44,0 5.13,0.16 6.58,0.16 1.64,0 5.78,-0.16 7.42,-0.16 0.45,0 1.05,0 1.05,0.95 0,0.39 -0.3,0.49 -0.3,0.55 -0.16,0.05 -0.25,0.05 -1.39,0.05 -1.11,0 -1.36,0 -2.59,0.09 -1.46,0.16 -1.6,0.36 -1.6,1 0,0.09 0,0.41 0.19,1.14 z"
           id="path5856"
           style="fill:#000000;stroke-width:0" /><path
           d="m 511,394.25 0,0.02 0,0.03 0,0.01 0,0.02 0,0.01 -0.01,0.02 0,0.01 -0.01,0.02 -0.01,0.02 -0.01,0.02 -0.01,0.02 -0.02,0.03 -0.01,0.02 -0.02,0.03 -0.02,0.03 -0.03,0.03 -0.02,0.03 -0.03,0.04 -0.02,0.02 -0.01,0.02 -0.02,0.02 -0.02,0.02 -0.02,0.02 -0.02,0.03 -0.02,0.02 -0.02,0.02 -0.02,0.03 -0.03,0.02 -0.02,0.03 -0.03,0.03 -0.03,0.03 -0.02,0.03 -0.03,0.03 -0.03,0.03 -0.03,0.03 -0.03,0.03 -0.04,0.04 -0.03,0.03 -0.04,0.04 -0.03,0.03 -0.04,0.04 -0.04,0.04 c -6.22,6.28 -7.81,15.69 -7.81,23.31 0,8.67 1.89,17.35 8.01,23.56 0.64,0.61 0.64,0.71 0.64,0.86 0,0.35 -0.18,0.49 -0.48,0.49 -0.5,0 -4.98,-3.38 -7.92,-9.7 -2.55,-5.49 -3.14,-11.02 -3.14,-15.21 0,-3.89 0.54,-9.9 3.28,-15.54 2.98,-6.13 7.28,-9.36 7.78,-9.36 0.3,0 0.48,0.14 0.48,0.5 z"
           id="path5858"
           style="fill:#000000;stroke-width:0" /><path
           d="m 530.48,421.25 0.03,0.13 0.03,0.15 0.04,0.16 0.05,0.18 0.05,0.19 0.06,0.21 0.07,0.22 0.07,0.22 0.08,0.23 0.09,0.24 0.09,0.25 0.11,0.24 0.11,0.25 0.12,0.25 0.13,0.25 0.13,0.25 0.15,0.24 0.16,0.24 0.16,0.23 0.18,0.22 0.19,0.22 0.2,0.2 0.21,0.19 0.22,0.18 0.23,0.16 0.24,0.14 0.13,0.07 0.13,0.06 0.13,0.05 0.14,0.05 0.14,0.05 0.14,0.04 0.15,0.03 0.15,0.03 0.15,0.02 0.15,0.02 0.16,0.01 0.16,0 c 0.25,0 1.44,0 2.49,-0.64 -1.39,-0.25 -2.39,-1.5 -2.39,-2.69 0,-0.79 0.54,-1.75 1.89,-1.75 1.09,0 2.69,0.89 2.69,2.89 0,2.6 -2.94,3.28 -4.63,3.28 -2.89,0 -4.64,-2.64 -5.23,-3.78 -1.25,3.28 -3.94,3.78 -5.38,3.78 -5.19,0 -8.03,-6.42 -8.03,-7.67 0,-0.5 0.5,-0.5 0.61,-0.5 0.39,0 0.55,0.11 0.64,0.55 1.69,5.28 4.98,6.53 6.67,6.53 0.96,0 2.69,-0.44 2.69,-3.33 0,-1.54 -0.84,-4.89 -2.69,-11.86 -0.79,-3.09 -2.53,-5.18 -4.73,-5.18 -0.3,0 -1.44,0 -2.49,0.65 1.25,0.24 2.35,1.28 2.35,2.69 0,1.34 -1.1,1.73 -1.85,1.73 -1.5,0 -2.75,-1.29 -2.75,-2.89 0,-2.28 2.5,-3.28 4.69,-3.28 3.3,0 5.08,3.49 5.24,3.78 0.59,-1.84 2.39,-3.78 5.37,-3.78 5.14,0 7.98,6.42 7.98,7.67 0,0.5 -0.45,0.5 -0.6,0.5 -0.44,0 -0.55,-0.2 -0.65,-0.54 -1.64,-5.33 -5.03,-6.53 -6.62,-6.53 -1.95,0 -2.75,1.59 -2.75,3.29 0,1.1 0.3,2.19 0.86,4.38 z"
           id="path5860"
           style="fill:#000000;stroke-width:0" /><path
           d="m 556.66,418.65 0,0.37 0,0.39 -0.01,0.39 -0.01,0.41 -0.04,0.84 -0.06,0.88 -0.09,0.92 -0.1,0.95 -0.14,0.97 -0.16,1.01 -0.2,1.02 -0.23,1.03 -0.26,1.05 -0.31,1.06 -0.35,1.07 -0.39,1.07 -0.21,0.53 -0.23,0.53 -0.24,0.53 -0.25,0.53 c -2.98,6.12 -7.26,9.36 -7.76,9.36 -0.3,0 -0.5,-0.19 -0.5,-0.49 0,-0.15 0,-0.25 0.93,-1.15 4.9,-4.92 7.74,-12.85 7.74,-23.27 0,-8.51 -1.84,-17.28 -8.03,-23.56 -0.64,-0.59 -0.64,-0.7 -0.64,-0.84 0,-0.3 0.2,-0.5 0.5,-0.5 0.5,0 4.97,3.39 7.92,9.71 2.53,5.47 3.12,11 3.12,15.19 z"
           id="path5862"
           style="fill:#000000;stroke-width:0" /><path
           d="m 609.74,422.5 0.14,0 0.15,0 0.14,0 0.07,0.01 0.08,0 0.07,0.01 0.07,0.01 0.07,0.01 0.07,0.01 0.07,0.01 0.06,0.02 0.07,0.02 0.06,0.02 0.06,0.02 0.06,0.03 0.06,0.03 0.05,0.04 0.05,0.03 0.05,0.05 0.04,0.04 0.04,0.05 0.02,0.03 0.02,0.03 0.01,0.02 0.02,0.03 0.01,0.03 0.01,0.04 0.02,0.03 0.01,0.04 0.01,0.03 0.01,0.04 0,0.04 0.01,0.04 0,0.04 0.01,0.04 0,0.04 0,0.05 c 0,1 -0.95,1 -1.64,1 h -29.84 c -0.71,0 -1.65,0 -1.65,-1 0,-0.98 0.94,-0.98 1.69,-0.98 z"
           id="path5864"
           style="fill:#000000;stroke-width:0" /><path
           d="m 609.79,412.82 0.06,0 0.07,0 0.14,0.01 0.14,0 0.07,0 0.07,0.01 0.07,0.01 0.06,0 0.07,0.01 0.07,0.02 0.07,0.01 0.06,0.02 0.07,0.02 0.06,0.02 0.06,0.02 0.05,0.03 0.06,0.03 0.05,0.04 0.05,0.04 0.05,0.04 0.04,0.05 0.02,0.02 0.02,0.03 0.02,0.02 0.02,0.03 0.01,0.03 0.02,0.03 0.01,0.03 0.01,0.03 0.02,0.04 0.01,0.03 0.01,0.04 0.01,0.04 0,0.04 0.01,0.04 0,0.04 0.01,0.04 0,0.05 0,0.04 c 0,1 -0.95,1 -1.69,1 h -29.75 c -0.75,0 -1.69,0 -1.69,-1 0,-1 0.94,-1 1.65,-1 z"
           id="path5866"
           style="fill:#000000;stroke-width:0" /><path
           d="m 642.83,438.09 0,0.05 0,0.06 0,0.05 0,0.05 0,0.05 0,0.05 0,0.04 0,0.05 -0.01,0.04 0,0.04 0,0.04 0,0.04 0,0.04 0,0.03 -0.01,0.04 0,0.03 -0.01,0.07 -0.01,0.06 -0.01,0.05 -0.01,0.05 -0.02,0.05 -0.02,0.04 -0.02,0.04 -0.02,0.03 -0.03,0.03 -0.03,0.03 -0.04,0.03 -0.04,0.02 -0.04,0.02 -0.03,0.01 -0.02,0.01 -0.03,0 -0.03,0.01 -0.02,0.01 -0.03,0 -0.03,0.01 -0.04,0 -0.03,0.01 -0.03,0 -0.04,0 -0.04,0.01 -0.04,0 -0.04,0 -0.04,0 -0.04,0 -0.05,0 -0.04,0.01 -0.05,0 -0.05,0 -0.05,0 -0.05,0 c -3.1,-3.19 -7.47,-3.19 -9.06,-3.19 v -1.55 c 1,0 3.93,0 6.51,1.3 v -25.81 c 0,-1.8 -0.14,-2.39 -4.62,-2.39 h -1.6 v -1.55 c 1.75,0.16 6.08,0.16 8.06,0.16 2,0 6.33,0 8.08,-0.16 v 1.55 h -1.59 c -4.49,0 -4.64,0.54 -4.64,2.39 z"
           id="path5868"
           style="fill:#000000;stroke-width:0" /><path
           d="m 696.89,417.65 0.16,0 0.16,0 0.16,0.01 0.07,0 0.08,0.01 0.08,0 0.07,0.01 0.07,0.01 0.08,0.01 0.06,0.02 0.07,0.02 0.07,0.02 0.06,0.02 0.06,0.02 0.06,0.03 0.06,0.03 0.05,0.04 0.05,0.03 0.04,0.05 0.05,0.04 0.04,0.05 0.01,0.03 0.02,0.03 0.02,0.03 0.01,0.03 0.02,0.03 0.01,0.03 0.01,0.04 0.01,0.03 0.01,0.04 0.01,0.04 0,0.04 0.01,0.04 0.01,0.04 0,0.04 0,0.05 0,0.04 c 0,1 -0.91,1 -1.75,1 h -26.95 c -0.85,0 -1.74,0 -1.74,-1 0,-1 0.89,-1 1.74,-1 z"
           id="path5870"
           style="fill:#000000;stroke-width:0" /><path
           d="m 723.18,417.71 0.14,0.01 0.15,0 0.17,0 0.18,0 0.19,0.01 0.2,0 0.2,0.01 0.22,0.01 0.23,0.01 0.23,0.01 0.24,0.01 0.24,0.02 0.25,0.02 0.26,0.02 0.52,0.05 0.54,0.07 0.54,0.07 0.54,0.1 0.55,0.11 0.53,0.12 0.26,0.07 0.26,0.08 0.25,0.08 0.25,0.08 0.24,0.09 0.24,0.1 c 3.48,1.5 3.73,4.43 3.73,5.12 0,2.2 -1.88,4.23 -5.32,4.23 v -1.09 c 2.34,0 3.69,-1.44 3.69,-3.14 0,-5.17 -7.97,-5.17 -10.02,-5.17 h -2.05 c 1.95,7.56 7.08,8.31 8.38,8.31 v 1.09 c -5.53,0 -13.05,-4.82 -13.05,-13.54 0,-5.08 2.94,-9.02 7.81,-9.02 7.13,0 11.31,5.28 11.31,5.88 0,0.29 -0.29,0.65 -0.59,0.65 -0.25,0 -0.34,-0.11 -0.66,-0.5 -3.93,-4.93 -9.35,-4.93 -9.95,-4.93 -3.89,0 -4.34,4.18 -4.34,5.78 0,0.59 0.04,2.14 0.79,5.18 z"
           id="path5872"
           style="fill:#000000;stroke-width:0" /><path
           d="m 762.96,432.07 0.05,0 0.06,0 0.11,0.01 0.12,0 0.06,0 0.06,0.01 0.05,0 0.06,0.01 0.06,0.01 0.06,0.01 0.05,0.01 0.06,0.01 0.05,0.02 0.06,0.02 0.05,0.02 0.05,0.02 0.05,0.03 0.04,0.03 0.04,0.03 0.04,0.04 0.04,0.04 0.02,0.02 0.01,0.02 0.02,0.02 0.01,0.03 0.02,0.02 0.01,0.03 0.01,0.02 0.02,0.03 0.01,0.03 0.01,0.03 0,0.03 0.01,0.03 0.01,0.04 0,0.03 0.01,0.03 0,0.04 0,0.04 0,0.04 c 0,0.86 -0.8,0.86 -1.39,0.86 H 742.2 c -0.57,0 -1.4,0 -1.4,-0.83 0,-0.88 0.8,-0.88 1.4,-0.88 z"
           id="path5874"
           style="fill:#000000;stroke-width:0" /><path
           d="m 782.2,434.17 0.32,-0.76 0.33,-0.77 0.34,-0.78 0.33,-0.78 0.32,-0.78 0.32,-0.76 0.15,-0.37 0.16,-0.36 0.14,-0.36 0.15,-0.34 0.14,-0.34 0.14,-0.32 0.13,-0.31 0.13,-0.3 0.12,-0.29 0.12,-0.27 0.11,-0.25 0.1,-0.23 0.1,-0.22 0.09,-0.19 0.08,-0.18 0.07,-0.15 0.07,-0.13 0.06,-0.11 0.05,-0.08 0.03,-0.06 c 0.66,-0.82 1.3,-0.82 1.85,-0.82 h 0.7 c 0.66,0 1.02,0 1.02,0.4 0,0.19 -0.11,0.28 -0.19,0.36 -0.41,0.38 -0.77,1.19 -0.91,1.5 l -8.5,20.06 c -0.23,0.63 -0.93,2.21 -4.62,2.21 -0.42,0 -0.91,0 -0.91,-0.5 0,-0.41 0.35,-0.46 0.52,-0.49 0.73,-0.09 1.39,-0.2 2.26,-2.19 l 4.14,-9.76 -10.26,-9.27 c -0.42,-0.34 -0.7,-0.62 -0.7,-1.22 0,-0.82 0.7,-1.18 1.18,-1.18 0.66,0 1.08,0.45 1.19,0.56 z"
           id="path5876"
           style="fill:#000000;stroke-width:0" /><path
           d="m 800.43,427.89 -0.04,-0.11 -0.04,-0.12 -0.04,-0.12 -0.05,-0.12 -0.05,-0.13 -0.06,-0.12 -0.06,-0.13 -0.07,-0.13 -0.07,-0.12 -0.08,-0.13 -0.08,-0.13 -0.08,-0.13 -0.09,-0.12 -0.09,-0.13 -0.1,-0.12 -0.1,-0.11 -0.11,-0.12 -0.11,-0.11 -0.11,-0.1 -0.12,-0.11 -0.12,-0.09 -0.13,-0.09 -0.13,-0.09 -0.13,-0.07 -0.14,-0.07 -0.14,-0.06 -0.15,-0.06 -0.15,-0.04 -0.15,-0.04 -0.16,-0.02 -0.16,-0.02 -0.16,-0.01 c -0.11,0 -1.16,0 -1.89,0.49 1.44,0.45 1.53,1.72 1.53,1.92 0,0.77 -0.59,1.3 -1.39,1.3 -0.97,0 -1.98,-0.85 -1.98,-2.14 0,-1.74 1.95,-2.53 3.65,-2.53 1.61,0 3.03,1 3.91,2.46 0.83,-1.84 2.75,-2.46 4.14,-2.46 4.02,0 6.14,4.34 6.14,5.32 0,0.46 -0.45,0.46 -0.56,0.46 -0.49,0 -0.52,-0.18 -0.66,-0.6 -0.73,-2.4 -2.83,-4.22 -4.78,-4.22 -1.39,0 -2.12,0.94 -2.12,2.27 0,0.91 0.84,4.08 1.81,7.95 0.7,2.67 2.26,3.55 3.42,3.55 0.06,0 1.14,0 1.87,-0.48 -1.1,-0.32 -1.53,-1.3 -1.53,-1.93 0,-0.76 0.6,-1.28 1.39,-1.28 0.82,0 1.96,0.66 1.96,2.13 0,1.95 -2.24,2.53 -3.63,2.53 -1.73,0 -3.14,-1.14 -3.91,-2.47 -0.62,1.44 -2.21,2.47 -4.17,2.47 -3.9,0 -6.14,-4.28 -6.14,-5.33 0,-0.45 0.5,-0.45 0.6,-0.45 0.45,0 0.48,0.14 0.67,0.59 0.86,2.72 3.06,4.22 4.76,4.22 1.16,0 2.1,-0.63 2.1,-2.3 0,-0.7 -0.42,-2.43 -0.74,-3.62 z"
           id="path5878"
           style="fill:#000000;stroke-width:0" /></g></g><g
       transform="matrix(1.1153929,0,0,-1.1153929,117.73369,141.9845)"
       id="g6066"><g
         transform="matrix(0.64107143,0,0,-0.64107143,-112.1875,336.5625)"
         id="g6068"
         xml:space="preserve"
         style="font-style:normal;font-variant:normal;font-weight:normal;font-stretch:normal;letter-spacing:normal;word-spacing:normal;text-anchor:start;fill:none;stroke:#000000;stroke-linecap:butt;stroke-linejoin:miter;stroke-miterlimit:10.43299961;stroke-opacity:1;stroke-dasharray:none;stroke-dashoffset:0"><path
           d="m 472.16,421.25 0.03,0.13 0.04,0.15 0.04,0.16 0.04,0.18 0.06,0.19 0.06,0.21 0.06,0.22 0.07,0.22 0.08,0.23 0.09,0.24 0.1,0.25 0.1,0.24 0.11,0.25 0.12,0.25 0.13,0.25 0.14,0.25 0.15,0.24 0.15,0.24 0.17,0.23 0.18,0.22 0.18,0.22 0.2,0.2 0.21,0.19 0.22,0.18 0.23,0.16 0.25,0.14 0.12,0.07 0.13,0.06 0.14,0.05 0.13,0.05 0.14,0.05 0.14,0.04 0.15,0.03 0.15,0.03 0.15,0.02 0.16,0.02 0.16,0.01 0.16,0 c 0.25,0 1.44,0 2.48,-0.64 -1.39,-0.25 -2.39,-1.5 -2.39,-2.69 0,-0.79 0.55,-1.75 1.89,-1.75 1.1,0 2.69,0.89 2.69,2.89 0,2.6 -2.94,3.28 -4.63,3.28 -2.89,0 -4.64,-2.64 -5.23,-3.78 -1.25,3.28 -3.94,3.78 -5.37,3.78 -5.19,0 -8.04,-6.42 -8.04,-7.67 0,-0.5 0.5,-0.5 0.61,-0.5 0.39,0 0.55,0.11 0.64,0.55 1.69,5.28 4.99,6.53 6.68,6.53 0.95,0 2.68,-0.44 2.68,-3.33 0,-1.54 -0.84,-4.89 -2.68,-11.86 -0.8,-3.09 -2.54,-5.18 -4.74,-5.18 -0.3,0 -1.44,0 -2.48,0.65 1.25,0.24 2.34,1.28 2.34,2.69 0,1.34 -1.09,1.73 -1.84,1.73 -1.5,0 -2.75,-1.29 -2.75,-2.89 0,-2.28 2.5,-3.28 4.68,-3.28 3.3,0 5.08,3.49 5.24,3.78 0.59,-1.84 2.39,-3.78 5.37,-3.78 5.14,0 7.99,6.42 7.99,7.67 0,0.5 -0.45,0.5 -0.61,0.5 -0.44,0 -0.55,-0.2 -0.64,-0.54 -1.64,-5.33 -5.03,-6.53 -6.63,-6.53 -1.95,0 -2.75,1.59 -2.75,3.29 0,1.1 0.3,2.19 0.86,4.38 z"
           id="path6070"
           style="fill:#000000;stroke-width:0" /></g></g><g
       transform="matrix(0.58948833,0,0,-0.58948833,367.34836,251.39636)"
       id="g6711"><g
         transform="matrix(0.64107143,0,0,-0.64107143,-112.1875,336.5625)"
         id="g6713"
         xml:space="preserve"
         style="font-style:normal;font-variant:normal;font-weight:normal;font-stretch:normal;letter-spacing:normal;word-spacing:normal;text-anchor:start;fill:none;stroke:#000000;stroke-linecap:butt;stroke-linejoin:miter;stroke-miterlimit:10.43299961;stroke-opacity:1;stroke-dasharray:none;stroke-dashoffset:0"><path
           d="m 473.8,426.12 h 4.28 c 1,0 1.5,0 1.5,1 0,0.55 -0.5,0.55 -1.34,0.55 h -4.14 l 1.04,5.69 c 0.21,1.04 0.91,4.57 1.21,5.17 0.45,0.95 1.29,1.7 2.34,1.7 0.19,0 1.49,0 2.44,-0.91 -2.19,-0.18 -2.69,-1.93 -2.69,-2.68 0,-1.14 0.89,-1.74 1.85,-1.74 1.29,0 2.73,1.1 2.73,2.99 0,2.29 -2.3,3.43 -4.33,3.43 -1.7,0 -4.84,-0.89 -6.33,-5.82 -0.29,-1.05 -0.45,-1.55 -1.64,-7.83 h -3.43 c -0.96,0 -1.5,0 -1.5,-0.94 0,-0.61 0.45,-0.61 1.39,-0.61 h 3.29 l -3.75,-19.67 c -0.89,-4.83 -1.73,-9.38 -4.33,-9.38 -0.2,0 -1.43,0 -2.39,0.91 2.3,0.14 2.74,1.94 2.74,2.69 0,1.14 -0.89,1.75 -1.85,1.75 -1.29,0 -2.73,-1.1 -2.73,-3 0,-2.24 2.19,-3.44 4.23,-3.44 2.74,0 4.74,2.94 5.63,4.84 1.59,3.14 2.75,9.16 2.8,9.52 z"
           id="path6715"
           style="fill:#000000;stroke-width:0" /><path
           d="m 501.77,394.25 0,0.02 -0.01,0.03 0,0.01 0,0.02 0,0.01 -0.01,0.02 0,0.01 -0.01,0.02 -0.01,0.02 -0.01,0.02 -0.01,0.02 -0.01,0.03 -0.02,0.02 -0.02,0.03 -0.02,0.03 -0.02,0.03 -0.03,0.03 -0.03,0.04 -0.02,0.02 -0.01,0.02 -0.02,0.02 -0.02,0.02 -0.02,0.02 -0.02,0.03 -0.02,0.02 -0.02,0.02 -0.02,0.03 -0.03,0.02 -0.02,0.03 -0.03,0.03 -0.02,0.03 -0.03,0.03 -0.03,0.03 -0.03,0.03 -0.03,0.03 -0.03,0.03 -0.04,0.04 -0.03,0.03 -0.03,0.04 -0.04,0.03 -0.04,0.04 -0.04,0.04 c -6.22,6.28 -7.81,15.69 -7.81,23.31 0,8.67 1.89,17.35 8.02,23.56 0.64,0.61 0.64,0.71 0.64,0.86 0,0.35 -0.19,0.49 -0.49,0.49 -0.5,0 -4.98,-3.38 -7.92,-9.7 -2.55,-5.49 -3.14,-11.02 -3.14,-15.21 0,-3.89 0.55,-9.9 3.28,-15.54 2.98,-6.13 7.28,-9.36 7.78,-9.36 0.3,0 0.49,0.14 0.49,0.5 z"
           id="path6717"
           style="fill:#000000;stroke-width:0" /><path
           d="m 521.24,421.25 0.03,0.13 0.03,0.15 0.05,0.16 0.04,0.18 0.05,0.19 0.06,0.21 0.07,0.22 0.07,0.22 0.08,0.23 0.09,0.24 0.09,0.25 0.11,0.24 0.11,0.25 0.12,0.25 0.13,0.25 0.14,0.25 0.14,0.24 0.16,0.24 0.17,0.23 0.17,0.22 0.19,0.22 0.2,0.2 0.21,0.19 0.22,0.18 0.23,0.16 0.25,0.14 0.12,0.07 0.13,0.06 0.14,0.05 0.13,0.05 0.14,0.05 0.14,0.04 0.15,0.03 0.15,0.03 0.15,0.02 0.15,0.02 0.16,0.01 0.17,0 c 0.25,0 1.43,0 2.48,-0.64 -1.39,-0.25 -2.39,-1.5 -2.39,-2.69 0,-0.79 0.55,-1.75 1.89,-1.75 1.09,0 2.69,0.89 2.69,2.89 0,2.6 -2.94,3.28 -4.63,3.28 -2.89,0 -4.64,-2.64 -5.23,-3.78 -1.25,3.28 -3.94,3.78 -5.38,3.78 -5.18,0 -8.03,-6.42 -8.03,-7.67 0,-0.5 0.5,-0.5 0.61,-0.5 0.39,0 0.55,0.11 0.64,0.55 1.69,5.28 4.99,6.53 6.67,6.53 0.96,0 2.69,-0.44 2.69,-3.33 0,-1.54 -0.84,-4.89 -2.69,-11.86 -0.79,-3.09 -2.53,-5.18 -4.73,-5.18 -0.3,0 -1.44,0 -2.48,0.65 1.25,0.24 2.34,1.28 2.34,2.69 0,1.34 -1.09,1.73 -1.84,1.73 -1.5,0 -2.75,-1.29 -2.75,-2.89 0,-2.28 2.5,-3.28 4.68,-3.28 3.3,0 5.08,3.49 5.24,3.78 0.59,-1.84 2.39,-3.78 5.37,-3.78 5.14,0 7.99,6.42 7.99,7.67 0,0.5 -0.46,0.5 -0.61,0.5 -0.44,0 -0.55,-0.2 -0.64,-0.54 -1.64,-5.33 -5.04,-6.53 -6.63,-6.53 -1.95,0 -2.75,1.59 -2.75,3.29 0,1.1 0.3,2.19 0.86,4.38 z"
           id="path6719"
           style="fill:#000000;stroke-width:0" /><path
           d="m 547.43,418.65 -0.01,0.37 0,0.39 -0.01,0.39 -0.01,0.41 -0.04,0.84 -0.06,0.88 -0.08,0.92 -0.11,0.95 -0.14,0.97 -0.16,1.01 -0.2,1.02 -0.23,1.03 -0.26,1.05 -0.31,1.06 -0.35,1.07 -0.39,1.07 -0.21,0.53 -0.23,0.53 -0.24,0.53 -0.24,0.53 c -2.99,6.12 -7.27,9.36 -7.77,9.36 -0.3,0 -0.5,-0.19 -0.5,-0.49 0,-0.15 0,-0.25 0.94,-1.15 4.89,-4.92 7.73,-12.85 7.73,-23.27 0,-8.51 -1.84,-17.28 -8.03,-23.56 -0.64,-0.59 -0.64,-0.7 -0.64,-0.84 0,-0.3 0.2,-0.5 0.5,-0.5 0.5,0 4.97,3.39 7.92,9.71 2.53,5.47 3.13,11 3.13,15.19 z"
           id="path6721"
           style="fill:#000000;stroke-width:0" /><path
           d="m 600.63,422.5 0.13,0 0.15,0 0.14,0 0.08,0.01 0.07,0 0.07,0.01 0.07,0.01 0.07,0.01 0.07,0.01 0.07,0.01 0.07,0.02 0.06,0.02 0.06,0.02 0.07,0.02 0.05,0.03 0.06,0.03 0.05,0.04 0.05,0.03 0.05,0.05 0.04,0.04 0.04,0.05 0.02,0.03 0.02,0.03 0.01,0.02 0.02,0.03 0.01,0.03 0.02,0.04 0.01,0.03 0.01,0.04 0.01,0.03 0.01,0.04 0.01,0.04 0,0.04 0.01,0.04 0,0.04 0,0.04 0,0.05 c 0,1 -0.95,1 -1.64,1 h -29.84 c -0.7,0 -1.64,0 -1.64,-1 0,-0.98 0.94,-0.98 1.69,-0.98 z"
           id="path6723"
           style="fill:#000000;stroke-width:0" /><path
           d="m 600.67,412.82 0.07,0 0.06,0 0.14,0.01 0.14,0 0.07,0 0.07,0.01 0.07,0.01 0.07,0 0.07,0.01 0.06,0.02 0.07,0.01 0.06,0.02 0.07,0.02 0.06,0.02 0.06,0.02 0.06,0.03 0.05,0.03 0.05,0.04 0.05,0.04 0.05,0.04 0.04,0.05 0.02,0.02 0.02,0.03 0.02,0.02 0.02,0.03 0.02,0.03 0.01,0.03 0.01,0.03 0.02,0.03 0.01,0.04 0.01,0.03 0.01,0.04 0.01,0.04 0.01,0.04 0,0.04 0.01,0.04 0,0.04 0,0.05 0,0.04 c 0,1 -0.95,1 -1.68,1 h -29.75 c -0.75,0 -1.69,0 -1.69,-1 0,-1 0.94,-1 1.64,-1 z"
           id="path6725"
           style="fill:#000000;stroke-width:0" /><path
           d="m 636.73,420.75 0.19,-0.5 0.2,-0.51 0.39,-1.05 0.39,-1.08 0.4,-1.1 0.39,-1.1 0.39,-1.09 0.37,-1.07 0.19,-0.53 0.18,-0.51 0.17,-0.5 0.18,-0.49 0.16,-0.47 0.17,-0.45 0.16,-0.44 0.15,-0.42 0.15,-0.39 0.14,-0.37 0.13,-0.35 0.13,-0.32 0.12,-0.29 0.12,-0.26 0.1,-0.23 0.1,-0.2 0.09,-0.16 0.08,-0.12 c 0.79,-1.1 1.29,-1.1 2.63,-1.1 h 1.1 c 0.5,0.05 0.55,0.35 0.55,0.5 0,0.14 -0.1,0.25 -0.25,0.46 -0.49,0.54 -0.8,1.28 -1.15,2.28 l -10.15,28.34 c -1.05,2.89 -3.75,3.55 -6.08,3.55 -0.25,0 -0.9,0 -0.9,-0.55 0,-0.41 0.4,-0.5 0.45,-0.5 1.64,-0.3 1.98,-0.59 3.23,-3.98 l 4.83,-13.55 -13.75,-13.66 c -0.59,-0.59 -0.89,-0.9 -0.89,-1.54 0,-0.85 0.7,-1.44 1.5,-1.44 0.8,0 1.23,0.55 1.64,1.05 z"
           id="path6727"
           style="fill:#000000;stroke-width:0" /><path
           d="m 657.3,417.71 0.14,0.01 0.16,0 0.17,0 0.17,0 0.19,0.01 0.2,0 0.21,0.01 0.22,0.01 0.22,0.01 0.23,0.01 0.24,0.01 0.25,0.02 0.25,0.02 0.25,0.02 0.53,0.05 0.53,0.07 0.54,0.07 0.55,0.1 0.54,0.11 0.53,0.12 0.27,0.07 0.25,0.08 0.26,0.08 0.25,0.08 0.24,0.09 0.24,0.1 c 3.48,1.5 3.73,4.43 3.73,5.12 0,2.2 -1.89,4.23 -5.33,4.23 v -1.09 c 2.35,0 3.69,-1.44 3.69,-3.14 0,-5.17 -7.97,-5.17 -10.02,-5.17 h -2.04 c 1.95,7.56 7.07,8.31 8.37,8.31 v 1.09 c -5.53,0 -13.05,-4.82 -13.05,-13.54 0,-5.08 2.94,-9.02 7.82,-9.02 7.12,0 11.31,5.28 11.31,5.88 0,0.29 -0.3,0.65 -0.59,0.65 -0.25,0 -0.35,-0.11 -0.66,-0.5 -3.94,-4.93 -9.36,-4.93 -9.95,-4.93 -3.89,0 -4.35,4.18 -4.35,5.78 0,0.59 0.05,2.14 0.8,5.18 z"
           id="path6729"
           style="fill:#000000;stroke-width:0" /><path
           d="m 697.08,432.07 0.06,0 0.05,0 0.11,0.01 0.12,0 0.06,0 0.06,0.01 0.06,0 0.05,0.01 0.06,0.01 0.06,0.01 0.06,0.01 0.05,0.01 0.06,0.02 0.05,0.02 0.05,0.02 0.05,0.02 0.05,0.03 0.04,0.03 0.04,0.03 0.04,0.04 0.04,0.04 0.02,0.02 0.01,0.02 0.02,0.02 0.02,0.03 0.01,0.02 0.01,0.03 0.02,0.02 0.01,0.03 0.01,0.03 0.01,0.03 0,0.03 0.01,0.03 0.01,0.04 0,0.03 0.01,0.03 0,0.04 0,0.04 0,0.04 c 0,0.86 -0.79,0.86 -1.39,0.86 h -20.76 c -0.57,0 -1.39,0 -1.39,-0.83 0,-0.88 0.79,-0.88 1.39,-0.88 z"
           id="path6731"
           style="fill:#000000;stroke-width:0" /><path
           d="m 716.32,434.17 0.32,-0.76 0.34,-0.77 0.33,-0.78 0.33,-0.78 0.32,-0.78 0.32,-0.76 0.16,-0.37 0.15,-0.36 0.15,-0.36 0.14,-0.34 0.14,-0.34 0.14,-0.32 0.13,-0.31 0.13,-0.3 0.12,-0.29 0.12,-0.27 0.11,-0.25 0.1,-0.23 0.1,-0.22 0.09,-0.19 0.08,-0.18 0.07,-0.15 0.07,-0.13 0.06,-0.11 0.05,-0.08 0.04,-0.06 c 0.65,-0.82 1.29,-0.82 1.84,-0.82 h 0.7 c 0.66,0 1.02,0 1.02,0.4 0,0.19 -0.11,0.28 -0.19,0.36 -0.4,0.38 -0.77,1.19 -0.9,1.5 l -8.5,20.06 c -0.24,0.63 -0.94,2.21 -4.63,2.21 -0.42,0 -0.91,0 -0.91,-0.5 0,-0.41 0.35,-0.46 0.52,-0.49 0.73,-0.09 1.39,-0.2 2.27,-2.19 l 4.13,-9.76 -10.26,-9.27 c -0.42,-0.34 -0.7,-0.62 -0.7,-1.22 0,-0.82 0.7,-1.18 1.18,-1.18 0.66,0 1.08,0.45 1.19,0.56 z"
           id="path6733"
           style="fill:#000000;stroke-width:0" /><path
           d="m 734.55,427.89 -0.04,-0.11 -0.04,-0.12 -0.04,-0.12 -0.05,-0.12 -0.05,-0.13 -0.06,-0.12 -0.06,-0.13 -0.07,-0.13 -0.07,-0.12 -0.08,-0.13 -0.08,-0.13 -0.08,-0.13 -0.09,-0.12 -0.09,-0.13 -0.1,-0.12 -0.1,-0.11 -0.11,-0.12 -0.11,-0.11 -0.11,-0.1 -0.12,-0.11 -0.12,-0.09 -0.13,-0.09 -0.13,-0.09 -0.13,-0.07 -0.14,-0.07 -0.14,-0.06 -0.15,-0.06 -0.15,-0.04 -0.15,-0.04 -0.16,-0.02 -0.16,-0.02 -0.16,-0.01 c -0.11,0 -1.15,0 -1.89,0.49 1.44,0.45 1.53,1.72 1.53,1.92 0,0.77 -0.59,1.3 -1.39,1.3 -0.97,0 -1.98,-0.85 -1.98,-2.14 0,-1.74 1.95,-2.53 3.65,-2.53 1.61,0 3.03,1 3.91,2.46 0.83,-1.84 2.75,-2.46 4.14,-2.46 4.02,0 6.14,4.34 6.14,5.32 0,0.46 -0.45,0.46 -0.56,0.46 -0.49,0 -0.52,-0.18 -0.66,-0.6 -0.73,-2.4 -2.83,-4.22 -4.78,-4.22 -1.39,0 -2.12,0.94 -2.12,2.27 0,0.91 0.84,4.08 1.81,7.95 0.7,2.67 2.26,3.55 3.42,3.55 0.06,0 1.14,0 1.88,-0.48 -1.11,-0.32 -1.54,-1.3 -1.54,-1.93 0,-0.76 0.6,-1.28 1.39,-1.28 0.82,0 1.96,0.66 1.96,2.13 0,1.95 -2.24,2.53 -3.63,2.53 -1.73,0 -3.14,-1.14 -3.9,-2.47 -0.63,1.44 -2.22,2.47 -4.18,2.47 -3.9,0 -6.14,-4.28 -6.14,-5.33 0,-0.45 0.5,-0.45 0.6,-0.45 0.45,0 0.48,0.14 0.67,0.59 0.86,2.72 3.06,4.22 4.77,4.22 1.15,0 2.09,-0.63 2.09,-2.3 0,-0.7 -0.42,-2.43 -0.74,-3.62 z"
           id="path6735"
           style="fill:#000000;stroke-width:0" /></g></g><g
       transform="matrix(0.81224051,0,0,-0.81224051,-92.25955,123.37104)"
       id="g7811"><g
         transform="matrix(0.64107143,0,0,-0.64107143,-112.1875,336.5625)"
         id="g7813"
         xml:space="preserve"
         style="font-style:normal;font-variant:normal;font-weight:normal;font-stretch:normal;letter-spacing:normal;word-spacing:normal;text-anchor:start;fill:none;stroke:#000000;stroke-linecap:butt;stroke-linejoin:miter;stroke-miterlimit:10.43299961;stroke-opacity:1;stroke-dasharray:none;stroke-dashoffset:0"><path
           d="m 478.44,422.14 0,0.74 -0.01,0.75 -0.02,0.75 -0.04,0.74 -0.04,0.75 -0.06,0.74 -0.08,0.74 -0.09,0.73 -0.12,0.73 -0.14,0.73 -0.16,0.72 -0.19,0.72 -0.21,0.72 -0.25,0.7 -0.28,0.7 -0.15,0.35 -0.16,0.34 c -2.28,4.8 -6.37,5.6 -8.47,5.6 -2.98,0 -6.62,-1.3 -8.67,-5.94 -1.59,-3.44 -1.84,-7.33 -1.84,-11.31 0,-3.74 0.2,-8.22 2.25,-12 2.14,-4.03 5.78,-5.03 8.22,-5.03 v 1.09 c -1.94,0 -4.89,1.25 -5.79,6.03 -0.54,2.98 -0.54,7.56 -0.54,10.52 0,3.18 0,6.46 0.4,9.15 0.94,5.94 4.68,6.38 5.93,6.38 1.64,0 4.93,-0.89 5.87,-5.83 0.5,-2.78 0.5,-6.58 0.5,-9.7 0,-3.75 0,-7.13 -0.55,-10.32 -0.75,-4.73 -3.59,-6.23 -5.82,-6.23 h 0 v -1.09 c 2.68,0 6.46,1.04 8.67,5.78 1.59,3.43 1.84,7.31 1.84,11.25 z"
           id="path7815"
           style="fill:#000000;stroke-width:0" /></g></g><path
       d="m 253.95565,123.43636 h 2.72853 c 0.63753,0 0.95628,0 0.95628,0.63751 0,0.35063 -0.31875,0.35063 -0.85427,0.35063 h -2.63929 l 0.66301,3.62745 c 0.13395,0.66302 0.58013,2.91343 0.77139,3.29593 0.28688,0.60564 0.82239,1.08378 1.49178,1.08378 0.12112,0 0.94988,0 1.55552,-0.58015 -1.39615,-0.11471 -1.7149,-1.23039 -1.7149,-1.70853 0,-0.72676 0.56739,-1.10926 1.17939,-1.10926 0.82239,0 1.74041,0.70125 1.74041,1.90615 0,1.4599 -1.46628,2.18667 -2.76042,2.18667 -1.08378,0 -3.08556,-0.56738 -4.03546,-3.71032 -0.18488,-0.66939 -0.28687,-0.98814 -1.04552,-4.99172 h -2.18666 c -0.61201,0 -0.95627,0 -0.95627,-0.59926 0,-0.38888 0.28688,-0.38888 0.88614,-0.38888 h 2.09741 l -2.39067,-12.53985 c -0.56738,-3.07918 -1.10289,-5.97987 -2.76042,-5.97987 -0.12753,0 -0.91163,0 -1.52365,0.58015 1.46628,0.0892 1.74679,1.23676 1.74679,1.7149 0,0.72676 -0.5674,1.11564 -1.17941,1.11564 -0.82238,0 -1.74041,-0.70125 -1.74041,-1.91253 0,-1.42803 1.39615,-2.19304 2.69668,-2.19304 1.74679,0 3.0218,1.87429 3.58919,3.08556 1.01365,2.00178 1.75317,5.83961 1.78503,6.0691 z"
       id="path6715-0"
       style="font-style:normal;font-variant:normal;font-weight:normal;font-stretch:normal;letter-spacing:normal;word-spacing:normal;text-anchor:start;fill:#000000;stroke:#000000;stroke-width:0;stroke-linecap:butt;stroke-linejoin:miter;stroke-miterlimit:10.43299961;stroke-opacity:1;stroke-dasharray:none;stroke-dashoffset:0" /><path
       d="m 160.35523,40.278144 9.52571,41.10542 9.52572,-41.10543 -19.05143,0"
       id="path3067"
       style="fill:#1a1a1a;fill-opacity:1;stroke:none" /></g></svg>